{"asset":{"version":"2.0","generator":"pocket make_sample_assets.py"},"scene":0,"scenes":[{"nodes":[0]}],"nodes":[{"name":"pyramid","mesh":0}],"meshes":[{"name":"mesh","primitives":[{"attributes":{"POSITION":0},"indices":1,"material":0}]}],"materials":[{"name":"green","pbrMetallicRoughness":{"baseColorFactor":[0.3,0.8,0.35,1],"metallicFactor":0,"roughnessFactor":1}}],"buffers":[{"byteLength":96,"uri":"data:application/octet-stream;base64,"}],"bufferViews":[{"buffer":0,"byteOffset":0,"byteLength":60,"target":34962},{"buffer":0,"byteOffset":60,"byteLength":36,"target":34963}],"accessors":[{"bufferView":0,"componentType":5126,"count":5,"type":"VEC3","min":[-0.5,0,-0.5],"max":[0.5,1,0.5]},{"bufferView":1,"componentType":5123,"count":18,"type":"SCALAR"}]}